<svg width="50" height="50" viewBox="0 0 50 50" fill="none" xmlns="http://www.w3.org/2000/svg">
<g clip-path="url(#clip0_98_2)">
<path d="M8.87778 40.2361C11.2389 38.5361 13.7444 37.1926 16.3944 36.2056C19.0426 35.2167 21.9111 34.7222 25 34.7222C28.087 34.7222 30.9556 35.2167 33.6056 36.2056C36.2537 37.1926 38.7593 38.5352 41.1222 40.2333C42.9556 38.337 44.4306 36.0963 45.5472 33.5111C46.6639 30.9222 47.2222 28.0852 47.2222 25C47.2222 18.8426 45.0583 13.5991 40.7306 9.26944C36.4028 4.93981 31.1593 2.77593 25 2.77778C18.8426 2.77778 13.5991 4.94259 9.26944 9.27222C4.93981 13.6019 2.77593 18.8444 2.77778 25C2.77778 28.087 3.33611 30.9231 4.45278 33.5083C5.56944 36.0954 7.04444 38.338 8.87778 40.2361ZM25 26.3889C22.6611 26.3889 20.687 25.5852 19.0778 23.9778C17.4704 22.3685 16.6667 20.3944 16.6667 18.0556C16.6667 15.7167 17.4704 13.7426 19.0778 12.1333C20.687 10.5259 22.6611 9.72222 25 9.72222C27.3389 9.72222 29.313 10.5259 30.9222 12.1333C32.5296 13.7426 33.3333 15.7167 33.3333 18.0556C33.3333 20.3944 32.5296 22.3685 30.9222 23.9778C29.313 25.5852 27.3389 26.3889 25 26.3889ZM25 50C21.513 50 18.2491 49.3509 15.2083 48.0528C12.1676 46.7565 9.5213 44.9824 7.26944 42.7306C5.01944 40.4787 3.24537 37.8324 1.94722 34.7917C0.649074 31.7509 0 28.487 0 25C0 21.513 0.649074 18.2491 1.94722 15.2083C3.24352 12.1676 5.01759 9.5213 7.26944 7.26944C9.5213 5.01944 12.1676 3.24537 15.2083 1.94722C18.2491 0.649074 21.513 0 25 0C28.487 0 31.7509 0.649074 34.7917 1.94722C37.8324 3.24352 40.4787 5.01759 42.7306 7.26944C44.9806 9.5213 46.7546 12.1676 48.0528 15.2083C49.3509 18.2491 50 21.513 50 25C50 28.487 49.3509 31.7509 48.0528 34.7917C46.7565 37.8324 44.9824 40.4787 42.7306 42.7306C40.4787 44.9806 37.8324 46.7546 34.7917 48.0528C31.7509 49.3509 28.487 50 25 50Z" fill="black"/>
</g>
<defs>
<clipPath id="clip0_98_2">
<rect width="50" height="50" fill="white"/>
</clipPath>
</defs>
</svg>
