<svg width="100" height="100" viewBox="0 0 100 100" fill="none" xmlns="http://www.w3.org/2000/svg">
<path d="M46.9321 7.85046C47.9811 8.52268 48.8842 9.31798 49.7559 10.2051C50.4453 9.89158 50.928 9.56004 51.4649 9.03016C53.8883 6.96235 56.6318 6.72433 59.6939 6.96343C62.2135 7.26859 63.8971 8.69934 65.625 10.4492C65.8088 10.6327 65.9926 10.8162 66.182 11.0052C66.3897 11.2134 66.3897 11.2134 66.6016 11.4258C66.7143 11.3314 66.8269 11.237 66.943 11.1397C69.5694 9.04277 72.0159 8.69184 75.311 8.92048C77.8327 9.2042 79.5255 10.6559 81.25 12.4023C81.5257 12.6776 81.5257 12.6776 81.807 12.9583C82.0147 13.1665 82.0147 13.1665 82.2266 13.3789C82.4985 13.1146 82.4985 13.1146 82.7759 12.8449C84.8163 11.1597 87.3759 10.5598 89.9685 10.7391C92.6929 11.1138 95.1957 12.3982 96.875 14.5996C100.313 20.2 98.0203 27.6377 96.6107 33.5885C95.4403 38.3155 93.9036 42.9425 91.7481 47.3145C91.6079 47.6012 91.6079 47.6012 91.465 47.8938C87.4044 56.1229 85.0342 58.2907 83.2032 60.0098C81.3721 61.7288 79.1856 62.085 79.1856 62.085C79.1856 62.085 79.186 55.3711 79.2086 54.1159C79.2312 52.8607 79.176 52.9335 79.186 52.338C79.1859 52.1139 79.1858 51.8898 79.1856 51.6589C79.1863 50.9231 79.1939 50.1875 79.2015 49.4516C79.2034 48.9396 79.2048 48.4275 79.2057 47.9154C79.2094 46.5712 79.219 45.2271 79.2299 43.8829C79.2399 42.5099 79.2443 41.1368 79.2492 39.7637C79.2597 37.0723 79.2763 34.3809 79.2969 31.6895C79.1664 31.7412 79.0358 31.7929 78.9013 31.8462C78.6416 31.9468 78.6416 31.9468 78.3766 32.0495C78.1204 32.1498 78.1204 32.1498 77.8589 32.252C76.6279 32.6579 75.2772 32.5386 73.9927 32.5308C73.4707 32.5287 72.9495 32.5357 72.4276 32.5435C69.7919 32.5572 67.7177 32.1516 65.7166 30.3381C65.3809 29.9805 65.3809 29.9805 64.8926 29.2481C64.7315 29.3135 64.5703 29.379 64.4043 29.4464C64.0418 29.5899 64.0418 29.5899 63.6719 29.7363C63.4145 29.861 63.157 29.9856 62.8918 30.114C61.4357 30.6563 59.9005 30.5869 58.3677 30.5777C57.8458 30.5756 57.3245 30.5826 56.8026 30.5903C54.2984 30.6031 52.1468 30.2914 50.2442 28.5156C49.5171 28.7722 48.9473 29.0558 48.3063 29.4922C46.5637 30.6302 44.7871 30.5597 42.7795 30.5592C42.2533 30.5603 41.7276 30.5692 41.2014 30.5784C39.4415 30.5923 37.938 30.5074 36.3298 29.7026C35.7792 29.428 35.7792 29.428 34.8633 29.4922C34.7223 29.6684 34.5813 29.8447 34.4361 30.0263C33.4051 31.315 32.0378 31.9732 30.4688 32.4219C29.3559 32.5094 28.2435 32.5023 27.1277 32.4989C26.5962 32.4982 26.065 32.5039 25.5335 32.5101C25.1905 32.5107 24.8475 32.5108 24.5045 32.5106C24.1968 32.5113 23.889 32.512 23.5719 32.5128C22.8036 32.4365 22.3227 32.3246 21.6225 32.05C21.4495 31.9828 21.2765 31.9157 21.0982 31.8465C20.9678 31.7947 20.8375 31.7428 20.7032 31.6895C20.7053 31.9732 20.7075 32.2569 20.7097 32.5492C20.7295 35.2253 20.7442 37.9014 20.7538 40.5775C20.7588 41.9533 20.7658 43.329 20.7768 44.7048C20.7875 46.0329 20.7933 47.361 20.7958 48.6892C20.7976 49.1954 20.8011 49.7017 20.8064 50.2079C20.8135 50.918 20.8145 51.6279 20.814 52.338C20.8175 52.5464 20.821 52.7549 20.8247 52.9697C20.815 54.3761 20.7958 62.085 20.7958 62.085C20.7958 62.085 18.9329 61.8408 16.8577 60.0098C14.7825 58.1787 13.7339 56.3659 12.8524 55.1587C12.6976 54.9315 12.6976 54.9315 12.5397 54.6997C12.3698 54.4584 12.3698 54.4584 12.1965 54.2121C5.55947 44.6008 0.556028 30.4996 1.41605 18.75C1.99038 15.9341 3.48473 13.8213 5.81058 12.1582C8.37735 10.7628 11.4237 10.427 14.2592 11.1673C15.6473 11.7286 16.8479 12.4484 18.0176 13.3789C18.1479 13.2197 18.2782 13.0604 18.4124 12.8964C20.0593 10.9646 22.0115 9.21494 24.648 8.9268C28.1578 8.72743 30.833 9.19085 33.6426 11.4258C33.7729 11.2665 33.9032 11.1073 34.0374 10.9432C37.2487 7.17636 42.2747 5.5516 46.9321 7.85046ZM38.2136 12.4939C36.5477 14.0653 36.3236 16.0422 36.2547 18.2398C36.2512 18.7405 36.2503 19.2411 36.2519 19.7418C36.2479 19.9919 36.244 20.2419 36.2399 20.4995C36.2389 22.1366 36.3007 23.9084 37.3719 25.2407C38.7204 26.4765 40.4 26.6536 42.157 26.6388C42.328 26.6374 42.499 26.636 42.6752 26.6346C44.1701 26.5997 45.5347 26.4862 46.7232 25.5154C48.2364 23.8891 48.1234 21.8493 48.1079 19.7723C48.1098 19.521 48.1117 19.2697 48.1137 19.0108C48.1072 16.435 47.9325 14.3164 46.0938 12.4023C43.7584 10.3385 40.5144 10.591 38.2136 12.4939ZM53.8386 12.4939C52.1727 14.0653 51.9486 16.0422 51.8797 18.2398C51.8762 18.7405 51.8753 19.2411 51.8769 19.7418C51.8729 19.9919 51.869 20.2419 51.8649 20.4995C51.8639 22.1366 51.9257 23.9084 52.9969 25.2407C54.3454 26.4765 56.025 26.6536 57.782 26.6388C57.953 26.6374 58.124 26.636 58.3002 26.6346C59.7951 26.5997 61.1597 26.4862 62.3482 25.5154C63.8614 23.8891 63.7484 21.8493 63.7329 19.7723C63.7348 19.521 63.7367 19.2697 63.7387 19.0108C63.7322 16.435 63.5575 14.3164 61.7188 12.4023C59.3834 10.3385 56.1394 10.591 53.8386 12.4939ZM22.5886 14.447C20.9227 16.0185 20.6986 17.9954 20.6297 20.1929C20.6262 20.6936 20.6253 21.1943 20.6269 21.695C20.6229 21.945 20.619 22.195 20.6149 22.4526C20.6139 24.0898 20.6757 25.8615 21.7469 27.1938C23.0954 28.4296 24.775 28.6067 26.532 28.5919C26.703 28.5905 26.874 28.5892 27.0502 28.5878C28.5451 28.5528 29.9097 28.4393 31.0982 27.4685C32.6114 25.8422 32.4984 23.8024 32.4829 21.7255C32.4848 21.4742 32.4867 21.2229 32.4887 20.964C32.4821 18.3881 32.3075 16.2696 30.4688 14.3555C28.1334 12.2916 24.8894 12.5441 22.5886 14.447ZM69.4636 14.447C67.7977 16.0185 67.5736 17.9954 67.5047 20.1929C67.5012 20.6936 67.5003 21.1943 67.5019 21.695C67.4979 21.945 67.494 22.195 67.4899 22.4526C67.4889 24.0898 67.5507 25.8615 68.6219 27.1938C69.9704 28.4296 71.65 28.6067 73.407 28.5919C73.578 28.5905 73.749 28.5892 73.9252 28.5878C75.4201 28.5528 76.7847 28.4393 77.9732 27.4685C79.4864 25.8422 79.3734 23.8024 79.3579 21.7255C79.3598 21.4742 79.3617 21.2229 79.3637 20.964C79.3572 18.3881 79.1825 16.2696 77.3438 14.3555C75.0084 12.2916 71.7644 12.5441 69.4636 14.447ZM6.61834 17.0591C5.00395 19.5474 5.5121 22.3436 5.96317 25.1434C6.00703 25.4179 6.05089 25.6925 6.09609 25.9753C7.56048 34.7912 10.2167 46.4266 16.7969 52.9297C16.8083 48.77 16.8169 44.6104 16.8222 40.4507C16.8247 38.5191 16.8281 36.5876 16.8337 34.656C16.8386 32.9716 16.8418 31.2872 16.8429 29.6028C16.8435 28.7117 16.845 27.8206 16.8485 26.9295C16.8525 25.9325 16.8526 24.9356 16.8523 23.9386C16.8541 23.646 16.8559 23.3535 16.8577 23.052C16.8513 20.4482 16.7281 18.2375 14.8438 16.3086C13.4331 15.1359 12.1018 14.9717 10.311 14.9897C8.77319 15.1699 7.59551 15.8608 6.61834 17.0591ZM84.5765 16.9037C82.9684 18.9563 83.168 21.367 83.1754 23.8554C83.1754 24.17 83.1754 24.4846 83.1753 24.8087C83.1753 25.6671 83.1767 26.5255 83.1784 27.3839C83.1799 28.2825 83.1801 29.1812 83.1804 30.0798C83.1811 31.7797 83.1831 33.4795 83.1856 35.1794C83.1883 37.1154 83.1897 39.0514 83.1909 40.9874C83.1934 44.9682 83.1977 48.9489 83.2032 52.9297C84.1223 52.0356 84.8332 51.1512 85.4767 50.0458C85.5708 49.8858 85.6649 49.7258 85.7618 49.561C90.5375 41.3315 93.651 31.6564 94.4336 22.168C94.4681 21.7809 94.4681 21.7809 94.5033 21.386C94.5898 19.6202 94.3123 18.2165 93.2129 16.7969C90.5657 14.5558 87.0381 14.2 84.5765 16.9037Z" fill="#1B1717"/>
<path d="M24.0913 75.3358C22.3334 71.6267 18.2597 66.8457 18.2597 66.8457C18.2597 66.8457 14.1552 71.6077 12.4281 75.3358C11.2612 77.8548 10.6496 79.36 10.1372 82.1518C9.85833 83.6708 9.68881 84.546 9.72061 86.0979C9.75663 87.8559 9.84401 88.9072 10.4496 90.5224C11.1153 92.2981 11.68 93.3495 13.0529 94.4685C14.1245 95.3418 14.8768 95.6855 16.177 95.9034C16.9818 96.0383 17.4464 96.1426 18.2597 96.1426C19.2357 96.1426 19.8 96.1119 20.759 95.9034C21.9396 95.6467 22.5978 95.2784 23.5706 94.4685C24.9337 93.3336 25.5305 92.3089 26.174 90.5224C26.7566 88.9049 26.7572 87.8477 26.7988 86.0979C26.8356 84.5511 26.7448 83.6705 26.4864 82.1518C26.0071 79.3347 25.2862 77.857 24.0913 75.3358Z" fill="#CE1212"/>
<path d="M68.71 51.4367V43.0217C68.71 42.8917 68.695 42.7867 68.665 42.7067C68.635 42.6267 68.59 42.5617 68.53 42.5117C68.48 42.4517 68.42 42.4067 68.35 42.3767C68.28 42.3367 68.21 42.2917 68.14 42.2417H70.285C70.605 42.2417 70.935 42.3117 71.275 42.4517C71.625 42.5817 71.94 42.7067 72.22 42.8267C72.82 43.0867 73.37 43.4117 73.87 43.8017C74.38 44.1917 74.82 44.6367 75.19 45.1367C75.57 45.6367 75.865 46.1867 76.075 46.7867C76.285 47.3767 76.39 48.0067 76.39 48.6767C76.39 48.9967 76.35 49.3067 76.27 49.6067C76.19 49.9067 76.15 50.2167 76.15 50.5367C76.15 50.6367 76.16 50.7067 76.18 50.7467C76.21 50.7867 76.275 50.8217 76.375 50.8517C75.965 51.3117 75.455 51.6667 74.845 51.9167C74.235 52.1667 73.625 52.2917 73.015 52.2917H68.14C68.21 52.2217 68.28 52.1617 68.35 52.1117C68.43 52.0617 68.5 52.0067 68.56 51.9467C68.62 51.8867 68.66 51.8167 68.68 51.7367C68.71 51.6567 68.72 51.5567 68.71 51.4367ZM70.93 42.6917L70.6 42.6167C70.54 42.6167 70.47 42.6317 70.39 42.6617C70.32 42.6917 70.285 42.7467 70.285 42.8267V50.4167C70.285 50.5767 70.29 50.7317 70.3 50.8817C70.31 51.0317 70.335 51.1617 70.375 51.2717C70.425 51.3817 70.5 51.4717 70.6 51.5417C70.71 51.6117 70.865 51.6467 71.065 51.6467H72.865C73.215 51.6467 73.51 51.5217 73.75 51.2717C73.99 51.0217 74.18 50.7217 74.32 50.3717C74.47 50.0217 74.575 49.6617 74.635 49.2917C74.705 48.9117 74.74 48.6017 74.74 48.3617C74.74 47.0017 74.4 45.8567 73.72 44.9267C73.04 43.9967 72.11 43.2517 70.93 42.6917Z" fill="#CE1212"/>
<path d="M60.6529 43.6817C60.8529 43.4317 61.1429 43.2167 61.5229 43.0367C61.9129 42.8467 62.3229 42.6967 62.7529 42.5867C63.1929 42.4667 63.6279 42.3817 64.0579 42.3317C64.4879 42.2717 64.8479 42.2417 65.1379 42.2417C65.3779 42.2417 65.6479 42.2567 65.9479 42.2867C66.2579 42.3167 66.5479 42.3867 66.8179 42.4967C67.0879 42.5967 67.3129 42.7467 67.4929 42.9467C67.6729 43.1367 67.7629 43.3967 67.7629 43.7267C67.7629 43.9267 67.6829 44.1217 67.5229 44.3117C67.3629 44.5017 67.1729 44.6817 66.9529 44.8517C66.7329 45.0117 66.5079 45.1567 66.2779 45.2867C66.0479 45.4067 65.8679 45.4967 65.7379 45.5567C65.5879 45.6167 65.4029 45.6917 65.1829 45.7817C64.9729 45.8717 64.7479 45.9667 64.5079 46.0667C64.2779 46.1567 64.0579 46.2417 63.8479 46.3217C63.6379 46.4017 63.4679 46.4567 63.3379 46.4867C63.3879 46.4467 63.4829 46.3767 63.6229 46.2767C63.7629 46.1667 63.9129 46.0567 64.0729 45.9467C64.2329 45.8267 64.3829 45.7167 64.5229 45.6167C64.6629 45.5167 64.7579 45.4467 64.8079 45.4067C64.8979 45.3367 65.0129 45.2367 65.1529 45.1067C65.3029 44.9767 65.4479 44.8317 65.5879 44.6717C65.7379 44.5117 65.8629 44.3467 65.9629 44.1767C66.0629 44.0067 66.1129 43.8517 66.1129 43.7117C66.1129 43.5517 66.0629 43.4167 65.9629 43.3067C65.8729 43.1867 65.7579 43.0917 65.6179 43.0217C65.4779 42.9517 65.3279 42.9017 65.1679 42.8717C65.0079 42.8417 64.8679 42.8267 64.7479 42.8267C64.4779 42.8267 64.2229 42.8717 63.9829 42.9617C63.7529 43.0517 63.5479 43.1767 63.3679 43.3367C63.1979 43.4967 63.0579 43.6917 62.9479 43.9217C62.8479 44.1517 62.7979 44.4067 62.7979 44.6867V51.4967C62.7979 51.6767 62.8629 51.8317 62.9929 51.9617C63.1229 52.0917 63.2529 52.2017 63.3829 52.2917H60.6529C60.7829 52.2017 60.9079 52.0917 61.0279 51.9617C61.1579 51.8317 61.2229 51.6767 61.2229 51.4967V44.5517C61.2229 44.1317 61.0329 43.8417 60.6529 43.6817Z" fill="#CE1212"/>
<path d="M53.4526 49.9967C53.3826 49.7967 53.3276 49.5867 53.2876 49.3667C53.2576 49.1467 53.2326 48.9317 53.2126 48.7217C53.2026 48.5117 53.1976 48.3167 53.1976 48.1367C53.1976 47.9467 53.1976 47.7817 53.1976 47.6417C53.1976 47.2917 53.2276 46.9017 53.2876 46.4717C53.3476 46.0417 53.4476 45.6567 53.5876 45.3167C53.6776 45.0967 53.7576 44.9017 53.8276 44.7317C53.8976 44.5617 53.9726 44.4017 54.0526 44.2517C54.1326 44.0917 54.2176 43.9267 54.3076 43.7567C54.4076 43.5867 54.5276 43.3917 54.6676 43.1717C54.7576 43.0317 54.7926 42.9117 54.7726 42.8117C54.7626 42.7117 54.7276 42.6267 54.6676 42.5567C54.6076 42.4867 54.5326 42.4267 54.4426 42.3767C54.3526 42.3267 54.2726 42.2817 54.2026 42.2417H60.3376C60.1676 42.3517 60.0576 42.4717 60.0076 42.6017C59.9576 42.7317 59.9026 42.8967 59.8426 43.0967V51.4367C59.8426 51.7067 59.8876 51.8867 59.9776 51.9767C60.0676 52.0667 60.1876 52.1717 60.3376 52.2917H57.8476C58.0176 52.1617 58.1426 52.0467 58.2226 51.9467C58.3026 51.8467 58.3426 51.6767 58.3426 51.4367V45.5867H56.4076C56.2376 45.5867 56.0576 45.6017 55.8676 45.6317C55.6776 45.6617 55.4976 45.7117 55.3276 45.7817C55.3276 45.7517 55.3426 45.6867 55.3726 45.5867C55.4126 45.4767 55.4576 45.3617 55.5076 45.2417C55.5576 45.1217 55.6126 45.0167 55.6726 44.9267C55.7426 44.8367 55.8076 44.7917 55.8676 44.7917H58.3426V43.6367C58.3426 43.4667 58.3276 43.3567 58.2976 43.3067C58.2776 43.2467 58.2426 43.2067 58.1926 43.1867C58.1626 43.1567 58.1126 43.1367 58.0426 43.1267C57.9826 43.1067 57.9176 43.0967 57.8476 43.0967C57.7776 43.0867 57.7126 43.0867 57.6526 43.0967C57.6026 43.0967 57.5726 43.0967 57.5626 43.0967C57.1626 43.0967 56.8026 43.1917 56.4826 43.3817C56.1626 43.5617 55.8826 43.8067 55.6426 44.1167C55.4026 44.4167 55.1976 44.7617 55.0276 45.1517C54.8576 45.5417 54.7176 45.9417 54.6076 46.3517C54.5076 46.7617 54.4326 47.1667 54.3826 47.5667C54.3326 47.9667 54.3076 48.3217 54.3076 48.6317C54.3076 49.4617 54.4476 50.2417 54.7276 50.9717C55.0076 51.7017 55.3476 52.4267 55.7476 53.1467C55.7276 53.1467 55.6726 53.1117 55.5826 53.0417C55.5026 52.9717 55.4076 52.8867 55.2976 52.7867C55.1976 52.6867 55.0926 52.5817 54.9826 52.4717C54.8826 52.3717 54.8026 52.2867 54.7426 52.2167C54.4626 51.9067 54.2126 51.5567 53.9926 51.1667C53.7726 50.7767 53.5926 50.3867 53.4526 49.9967Z" fill="#CE1212"/>
<path d="M50.6371 53.0867C50.7871 52.8667 50.9371 52.6317 51.0871 52.3817C51.2471 52.1417 51.3871 51.8917 51.5071 51.6317C51.6371 51.3717 51.7421 51.1067 51.8221 50.8367C51.9021 50.5567 51.9421 50.2717 51.9421 49.9817C51.9421 49.5917 51.8321 49.1667 51.6121 48.7067C51.3921 48.2367 51.1071 47.8017 50.7571 47.4017C50.4071 47.0017 50.0171 46.6667 49.5871 46.3967C49.1571 46.1267 48.7371 45.9917 48.3271 45.9917C48.2671 45.9917 48.1971 46.0017 48.1171 46.0217C48.0371 46.0417 47.9571 46.0767 47.8771 46.1267C47.8071 46.1667 47.7471 46.2167 47.6971 46.2767C47.6471 46.3367 47.6221 46.4117 47.6221 46.5017V51.5117C47.6221 51.6917 47.6871 51.8467 47.8171 51.9767C47.9471 52.1067 48.0771 52.2117 48.2071 52.2917H45.4771C45.6071 52.2117 45.7321 52.1067 45.8521 51.9767C45.9821 51.8467 46.0471 51.6917 46.0471 51.5117V43.0517C46.0471 42.8717 45.9821 42.7167 45.8521 42.5867C45.7321 42.4467 45.6071 42.3317 45.4771 42.2417H48.2071C48.0771 42.3317 47.9471 42.4467 47.8171 42.5867C47.6871 42.7167 47.6221 42.8717 47.6221 43.0517V45.0617C47.6221 45.1517 47.6721 45.1867 47.7721 45.1667C47.8821 45.1367 48.0021 45.0917 48.1321 45.0317C48.2721 44.9617 48.3971 44.8917 48.5071 44.8217C48.6171 44.7517 48.6821 44.7117 48.7021 44.7017C48.7921 44.6217 48.9071 44.5217 49.0471 44.4017C49.1971 44.2717 49.3421 44.1317 49.4821 43.9817C49.6221 43.8317 49.7471 43.6767 49.8571 43.5167C49.9771 43.3567 50.0571 43.2017 50.0971 43.0517C50.1371 42.8917 50.1221 42.7417 50.0521 42.6017C49.9921 42.4617 49.8521 42.3417 49.6321 42.2417H52.2871L49.3471 45.0617C49.8271 45.2817 50.2771 45.5167 50.6971 45.7667C51.1271 46.0067 51.5021 46.2867 51.8221 46.6067C52.1421 46.9267 52.3971 47.3067 52.5871 47.7467C52.7771 48.1767 52.8721 48.6917 52.8721 49.2917C52.8721 49.6917 52.8121 50.0717 52.6921 50.4317C52.5821 50.7917 52.4221 51.1367 52.2121 51.4667C52.0121 51.7867 51.7771 52.0817 51.5071 52.3517C51.2371 52.6217 50.9471 52.8667 50.6371 53.0867Z" fill="#CE1212"/>
<path d="M43.023 46.6217V46.0217C42.613 46.0217 42.208 45.8867 41.808 45.6167C41.418 45.3367 41.028 45.0017 40.638 44.6117C40.258 44.2117 39.878 43.7967 39.498 43.3667C39.128 42.9367 38.758 42.5617 38.388 42.2417H41.073C40.883 42.3817 40.733 42.4867 40.623 42.5567C40.523 42.6167 40.463 42.7167 40.443 42.8567C40.423 42.9667 40.458 43.0917 40.548 43.2317C40.638 43.3617 40.723 43.4667 40.803 43.5467C40.853 43.6067 40.933 43.6967 41.043 43.8167C41.163 43.9267 41.283 44.0417 41.403 44.1617C41.523 44.2817 41.633 44.3917 41.733 44.4917C41.843 44.5917 41.913 44.6567 41.943 44.6867C42.053 44.7867 42.193 44.8867 42.363 44.9867C42.533 45.0767 42.693 45.1217 42.843 45.1217C42.863 45.1217 42.898 45.1067 42.948 45.0767C42.998 45.0467 43.023 45.0067 43.023 44.9567V43.0367C43.023 42.8667 42.958 42.7117 42.828 42.5717C42.698 42.4317 42.573 42.3217 42.453 42.2417H45.168C45.038 42.3217 44.908 42.4317 44.778 42.5717C44.658 42.7117 44.598 42.8667 44.598 43.0367V51.4967C44.598 51.6767 44.658 51.8317 44.778 51.9617C44.908 52.0917 45.038 52.2017 45.168 52.2917H42.453C42.573 52.2017 42.698 52.0917 42.828 51.9617C42.958 51.8317 43.023 51.6767 43.023 51.4967V46.6217Z" fill="#CE1212"/>
<path d="M32.4353 52.2917H31.5803C31.3503 51.2517 31.3203 50.2217 31.4903 49.2017C31.6703 48.1817 31.9953 47.2017 32.4653 46.2617L34.6103 41.8967L37.1903 51.0617C37.2703 51.3217 37.3753 51.5567 37.5053 51.7667C37.6353 51.9767 37.8153 52.1517 38.0453 52.2917H35.5253C35.6953 52.2417 35.7903 52.1667 35.8103 52.0667C35.8403 51.9567 35.8553 51.8467 35.8553 51.7367C35.5453 50.6367 35.2803 49.7067 35.0603 48.9467C34.8403 48.1767 34.6553 47.5367 34.5053 47.0267C34.3653 46.5067 34.2503 46.1017 34.1603 45.8117C34.0803 45.5217 34.0153 45.3017 33.9653 45.1517C33.9153 45.0017 33.8803 44.9067 33.8603 44.8667C33.8503 44.8267 33.8403 44.8017 33.8303 44.7917C33.6103 45.1217 33.3953 45.4967 33.1853 45.9167C32.9753 46.3367 32.7953 46.7767 32.6453 47.2367C32.4953 47.6867 32.3803 48.1517 32.3003 48.6317C32.2203 49.1017 32.2003 49.5617 32.2403 50.0117C32.2803 50.4517 32.3853 50.8667 32.5553 51.2567C32.7353 51.6467 33.0003 51.9917 33.3503 52.2917H32.4353Z" fill="#CE1212"/>
<path d="M24.185 49.9967C24.115 49.7967 24.06 49.5867 24.02 49.3667C23.99 49.1467 23.965 48.9317 23.945 48.7217C23.935 48.5117 23.93 48.3167 23.93 48.1367C23.93 47.9467 23.93 47.7817 23.93 47.6417C23.93 47.2917 23.96 46.9017 24.02 46.4717C24.08 46.0417 24.18 45.6567 24.32 45.3167C24.41 45.0967 24.49 44.9017 24.56 44.7317C24.63 44.5617 24.705 44.4017 24.785 44.2517C24.865 44.0917 24.95 43.9267 25.04 43.7567C25.14 43.5867 25.26 43.3917 25.4 43.1717C25.49 43.0317 25.525 42.9117 25.505 42.8117C25.495 42.7117 25.46 42.6267 25.4 42.5567C25.34 42.4867 25.265 42.4267 25.175 42.3767C25.085 42.3267 25.005 42.2817 24.935 42.2417H31.07C30.9 42.3517 30.79 42.4717 30.74 42.6017C30.69 42.7317 30.635 42.8967 30.575 43.0967V51.4367C30.575 51.7067 30.62 51.8867 30.71 51.9767C30.8 52.0667 30.92 52.1717 31.07 52.2917H28.58C28.75 52.1617 28.875 52.0467 28.955 51.9467C29.035 51.8467 29.075 51.6767 29.075 51.4367V45.5867H27.14C26.97 45.5867 26.79 45.6017 26.6 45.6317C26.41 45.6617 26.23 45.7117 26.06 45.7817C26.06 45.7517 26.075 45.6867 26.105 45.5867C26.145 45.4767 26.19 45.3617 26.24 45.2417C26.29 45.1217 26.345 45.0167 26.405 44.9267C26.475 44.8367 26.54 44.7917 26.6 44.7917H29.075V43.6367C29.075 43.4667 29.06 43.3567 29.03 43.3067C29.01 43.2467 28.975 43.2067 28.925 43.1867C28.895 43.1567 28.845 43.1367 28.775 43.1267C28.715 43.1067 28.65 43.0967 28.58 43.0967C28.51 43.0867 28.445 43.0867 28.385 43.0967C28.335 43.0967 28.305 43.0967 28.295 43.0967C27.895 43.0967 27.535 43.1917 27.215 43.3817C26.895 43.5617 26.615 43.8067 26.375 44.1167C26.135 44.4167 25.93 44.7617 25.76 45.1517C25.59 45.5417 25.45 45.9417 25.34 46.3517C25.24 46.7617 25.165 47.1667 25.115 47.5667C25.065 47.9667 25.04 48.3217 25.04 48.6317C25.04 49.4617 25.18 50.2417 25.46 50.9717C25.74 51.7017 26.08 52.4267 26.48 53.1467C26.46 53.1467 26.405 53.1117 26.315 53.0417C26.235 52.9717 26.14 52.8867 26.03 52.7867C25.93 52.6867 25.825 52.5817 25.715 52.4717C25.615 52.3717 25.535 52.2867 25.475 52.2167C25.195 51.9067 24.945 51.5567 24.725 51.1667C24.505 50.7767 24.325 50.3867 24.185 49.9967Z" fill="#CE1212"/>
</svg>
