<svg width="35" height="35" viewBox="0 0 35 35" fill="none" xmlns="http://www.w3.org/2000/svg">
<path d="M17.5 1.1375C14.3869 1.01891 11.3534 2.1372 9.06219 4.24806C6.77099 6.35892 5.40831 9.29077 5.27185 12.4031C5.27185 23.3406 13.7594 31.2375 16.5812 33.5344C16.8399 33.7477 17.1647 33.8644 17.5 33.8644C17.8353 33.8644 18.1601 33.7477 18.4187 33.5344C21.2406 31.2375 29.7281 23.4062 29.7281 12.4031C29.5916 9.29077 28.229 6.35892 25.9378 4.24806C23.6466 2.1372 20.6131 1.01891 17.5 1.1375ZM17.5 30.625C15.4672 28.839 13.6601 26.8115 12.1187 24.5875C9.53961 21.0393 8.10486 16.7885 8.00623 12.4031C8.14186 10.0158 9.21616 7.779 10.9947 6.18075C12.7733 4.58249 15.1118 3.75251 17.5 3.87187C19.8882 3.75251 22.2267 4.58249 24.0052 6.18075C25.7838 7.779 26.8581 10.0158 26.9937 12.4031C26.9937 21.3281 20.5187 28.0656 17.5 30.625Z" fill="black"/>
<path d="M17.5 5.55625C16.7102 5.52408 15.922 5.649 15.1809 5.92377C14.4398 6.19853 13.7606 6.61767 13.1828 7.15689C12.6049 7.69611 12.1398 8.34469 11.8144 9.065C11.4891 9.78532 11.31 10.5631 11.2875 11.3531C11.3129 12.1423 11.4939 12.9186 11.8203 13.6376C12.1466 14.3566 12.6118 15.004 13.189 15.5426C13.7663 16.0813 14.4443 16.5006 15.1841 16.7764C15.9239 17.0523 16.711 17.1792 17.5 17.15C19.0883 17.1972 20.6307 16.6142 21.7906 15.5281C22.9505 14.442 23.6335 12.9411 23.6906 11.3531C23.6652 10.5659 23.4848 9.79137 23.1599 9.07387C22.8349 8.35637 22.3717 7.70996 21.7968 7.17159C21.2218 6.63322 20.5464 6.21344 19.8091 5.93627C19.0719 5.6591 18.2872 5.52997 17.5 5.55625ZM17.5 14.4156C16.6388 14.4634 15.7938 14.1679 15.1501 13.5939C14.5063 13.0199 14.1164 12.2141 14.0656 11.3531C14.1164 10.4921 14.5063 9.68635 15.1501 9.11232C15.7938 8.5383 16.6388 8.24282 17.5 8.29062C18.3634 8.24267 19.2108 8.53748 19.858 9.11096C20.5052 9.68444 20.8999 10.4902 20.9562 11.3531C20.8999 12.216 20.5052 13.0218 19.858 13.5953C19.2108 14.1688 18.3634 14.4636 17.5 14.4156Z" fill="black"/>
</svg>
